<svg xmlns="http://www.w3.org/2000/svg" width="256" height="256" viewBox="0 0 256 256" role="img" aria-label="API統合 モダナイズ">
  <defs>
    <linearGradient id="bg" x1="0" y1="0" x2="1" y2="1">
      <stop offset="0%" stop-color="#0B2E3C"/>
      <stop offset="100%" stop-color="#1F6F8B"/>
    </linearGradient>
    <linearGradient id="panel" x1="0" y1="0" x2="1" y2="1">
      <stop offset="0%" stop-color="#F5F3EE"/>
      <stop offset="100%" stop-color="#E6EDF1"/>
    </linearGradient>
    <filter id="shadow" x="-20%" y="-20%" width="140%" height="140%">
      <feDropShadow dx="0" dy="4" stdDeviation="6" flood-color="#000000" flood-opacity="0.3"/>
    </filter>
  </defs>
  <rect width="256" height="256" rx="28" fill="url(#bg)"/>
  <rect x="20" y="24" width="216" height="208" rx="20" fill="url(#panel)" filter="url(#shadow)"/>

  <rect x="36" y="52" width="84" height="84" rx="12" fill="#0B2E3C"/>
  <rect x="136" y="52" width="84" height="84" rx="12" fill="#1F6F8B"/>

  <text x="78" y="102" text-anchor="middle" font-size="18" font-weight="700" font-family="'Trebuchet MS', 'Segoe UI', sans-serif" fill="#FFFFFF">SRV</text>
  <text x="178" y="102" text-anchor="middle" font-size="18" font-weight="700" font-family="'Trebuchet MS', 'Segoe UI', sans-serif" fill="#FFFFFF">WEB</text>

  <rect x="92" y="144" width="72" height="28" rx="8" fill="#F6B352"/>
  <text x="128" y="164" text-anchor="middle" font-size="14" font-weight="800" font-family="'Trebuchet MS', 'Segoe UI', sans-serif" fill="#1B1B1B">API</text>

  <path d="M64 160 L104 160" stroke="#0B2E3C" stroke-width="6" stroke-linecap="round"/>
  <path d="M152 160 L192 160" stroke="#1F6F8B" stroke-width="6" stroke-linecap="round"/>
  <path d="M104 160 L116 154 L116 166 Z" fill="#0B2E3C"/>
  <path d="M152 160 L140 154 L140 166 Z" fill="#1F6F8B"/>

  <rect x="46" y="188" width="164" height="28" rx="10" fill="#243B53"/>
  <text x="128" y="208" text-anchor="middle" font-size="12" font-weight="700" font-family="'Trebuchet MS', 'Segoe UI', sans-serif" fill="#FFFFFF">CONSOLIDATE</text>
</svg>
