<svg xmlns="http://www.w3.org/2000/svg" viewBox="0 0 256 256" role="img" aria-labelledby="title desc">
  <title id="title">Modernized Server to WEBORCA Connectivity</title>
  <desc id="desc">A server rack connected to a cloud with a check mark, representing successful linkage.</desc>
  <defs>
    <linearGradient id="bg" x1="0" x2="0" y1="0" y2="1">
      <stop offset="0%" stop-color="#0f172a"/>
      <stop offset="100%" stop-color="#1e293b"/>
    </linearGradient>
    <linearGradient id="line" x1="0" x2="1" y1="0" y2="0">
      <stop offset="0%" stop-color="#38bdf8"/>
      <stop offset="100%" stop-color="#0ea5e9"/>
    </linearGradient>
  </defs>
  <rect x="8" y="8" width="240" height="240" rx="24" fill="url(#bg)" />
  <rect x="48" y="64" width="72" height="128" rx="12" fill="#0b1222" stroke="#38bdf8" stroke-width="4"/>
  <rect x="60" y="82" width="48" height="12" rx="6" fill="#38bdf8" opacity="0.8"/>
  <rect x="60" y="112" width="48" height="12" rx="6" fill="#38bdf8" opacity="0.65"/>
  <rect x="60" y="142" width="48" height="12" rx="6" fill="#38bdf8" opacity="0.5"/>
  <circle cx="84" cy="190" r="8" fill="#10b981"/>
  <path d="M120 128 C150 120 170 110 190 96" fill="none" stroke="url(#line)" stroke-width="6" stroke-linecap="round"/>
  <path d="M120 152 C150 160 172 176 188 192" fill="none" stroke="url(#line)" stroke-width="6" stroke-linecap="round"/>
  <path d="M168 92c0-18 15-32 34-32 16 0 30 11 33 26 12 3 21 14 21 27 0 16-13 29-29 29h-53c-17 0-31-14-31-31 0-18 13-33 31-33z" fill="#e0f2fe" stroke="#38bdf8" stroke-width="4"/>
  <path d="M199 120l10 10 18-22" fill="none" stroke="#10b981" stroke-width="6" stroke-linecap="round" stroke-linejoin="round"/>
  <text x="80" y="56" text-anchor="middle" font-family="Inter, system-ui, sans-serif" font-size="16" fill="#e5e7eb">SERVER</text>
  <text x="200" y="68" text-anchor="middle" font-family="Inter, system-ui, sans-serif" font-size="14" fill="#0ea5e9">WEBORCA</text>
</svg>
