<svg xmlns="http://www.w3.org/2000/svg" viewBox="0 0 256 256" role="img" aria-labelledby="title desc">
  <title id="title">Modernized Server ↔ Web Client Bridge</title>
  <desc id="desc">Gradient square showing server to client bridge with UI polish sparkle.</desc>
  <defs>
    <linearGradient id="bg" x1="0" y1="0" x2="1" y2="1">
      <stop offset="0%" stop-color="#0b3c5d"/>
      <stop offset="100%" stop-color="#1f8fbf"/>
    </linearGradient>
    <linearGradient id="path" x1="0" y1="0" x2="1" y2="1">
      <stop offset="0%" stop-color="#f6d365"/>
      <stop offset="100%" stop-color="#fda085"/>
    </linearGradient>
    <filter id="shadow" x="-10%" y="-10%" width="120%" height="120%">
      <feDropShadow dx="0" dy="6" stdDeviation="8" flood-color="#0a2033" flood-opacity="0.35"/>
    </filter>
  </defs>
  <rect x="16" y="16" width="224" height="224" rx="32" fill="url(#bg)" filter="url(#shadow)"/>
  <path d="M60 156c24-48 68-48 92 0 18-22 36-30 68-30" fill="none" stroke="url(#path)" stroke-width="14" stroke-linecap="round" stroke-linejoin="round"/>
  <rect x="42" y="82" width="56" height="50" rx="10" fill="#0f5f94" stroke="#b8e2ff" stroke-width="4"/>
  <rect x="158" y="126" width="56" height="50" rx="10" fill="#0f5f94" stroke="#b8e2ff" stroke-width="4"/>
  <circle cx="70" cy="107" r="6" fill="#b8e2ff"/>
  <circle cx="186" cy="151" r="6" fill="#b8e2ff"/>
  <text x="70" y="176" text-anchor="middle" font-size="34" font-family="" fill="#ffffff">↔</text>
  <g fill="#ffffff" stroke="none">
    <path d="M178 70l6 14 15 2-11 10 3 15-13-8-13 8 3-15-11-10 15-2z"/>
    <path d="M116 44l4 10 11 1-8 7 2 11-9-5-9 5 2-11-8-7 11-1z"/>
  </g>
</svg>
