<svg xmlns="http://www.w3.org/2000/svg" width="256" height="256" viewBox="0 0 256 256" role="img" aria-label="Issue catalog resolution gantt">
  <defs>
    <linearGradient id="bg" x1="0" y1="0" x2="1" y2="1">
      <stop offset="0" stop-color="#0B2A3A" />
      <stop offset="1" stop-color="#1B4F6B" />
    </linearGradient>
    <linearGradient id="accent" x1="0" y1="0" x2="1" y2="0">
      <stop offset="0" stop-color="#F6AE2D" />
      <stop offset="1" stop-color="#F26419" />
    </linearGradient>
    <filter id="shadow" x="-20%" y="-20%" width="140%" height="140%">
      <feDropShadow dx="0" dy="6" stdDeviation="8" flood-color="#081E2A" flood-opacity="0.35" />
    </filter>
  </defs>
  <rect x="0" y="0" width="256" height="256" rx="32" fill="url(#bg)" />
  <rect x="28" y="26" width="200" height="204" rx="20" fill="#F8FAFC" filter="url(#shadow)" />
  <rect x="44" y="46" width="168" height="16" rx="8" fill="#0B2A3A" opacity="0.18" />
  <rect x="44" y="70" width="120" height="10" rx="5" fill="#0B2A3A" opacity="0.16" />
  <rect x="44" y="90" width="150" height="10" rx="5" fill="#0B2A3A" opacity="0.12" />

  <rect x="44" y="118" width="80" height="12" rx="6" fill="url(#accent)" />
  <rect x="130" y="118" width="70" height="12" rx="6" fill="#1A936F" opacity="0.9" />
  <rect x="44" y="140" width="110" height="12" rx="6" fill="#1A936F" opacity="0.7" />
  <rect x="160" y="140" width="40" height="12" rx="6" fill="url(#accent)" />

  <line x1="170" y1="70" x2="196" y2="86" stroke="#1B4F6B" stroke-width="3" opacity="0.8" />
  <line x1="170" y1="70" x2="188" y2="54" stroke="#1B4F6B" stroke-width="3" opacity="0.8" />
  <circle cx="170" cy="70" r="7" fill="#F26419" />
  <circle cx="196" cy="86" r="7" fill="#F6AE2D" />
  <circle cx="188" cy="54" r="7" fill="#1A936F" />

  <rect x="44" y="170" width="168" height="28" rx="14" fill="#E2E8F0" />
  <text x="56" y="190" font-family="'Trebuchet MS', 'DejaVu Sans', Arial, sans-serif" font-size="20" font-weight="700" fill="#0B2A3A">IC</text>
  <text x="92" y="190" font-family="'Trebuchet MS', 'DejaVu Sans', Arial, sans-serif" font-size="14" font-weight="700" fill="#1B4F6B">PLAN</text>
  <text x="150" y="190" font-family="'Trebuchet MS', 'DejaVu Sans', Arial, sans-serif" font-size="12" font-weight="700" fill="#1A936F">PARA</text>
</svg>
