<svg xmlns="http://www.w3.org/2000/svg" width="256" height="256" viewBox="0 0 256 256" role="img" aria-label="ORCA pre-production gantt">
  <defs>
    <linearGradient id="bg" x1="0" y1="0" x2="1" y2="1">
      <stop offset="0" stop-color="#0B3C49" />
      <stop offset="1" stop-color="#1D2F4F" />
    </linearGradient>
    <linearGradient id="accent" x1="0" y1="0" x2="1" y2="0">
      <stop offset="0" stop-color="#F6AE2D" />
      <stop offset="1" stop-color="#F26419" />
    </linearGradient>
    <filter id="shadow" x="-20%" y="-20%" width="140%" height="140%">
      <feDropShadow dx="0" dy="6" stdDeviation="8" flood-color="#081E2A" flood-opacity="0.35" />
    </filter>
  </defs>
  <rect x="0" y="0" width="256" height="256" rx="32" fill="url(#bg)" />
  <rect x="30" y="28" width="196" height="200" rx="20" fill="#F8FAFC" filter="url(#shadow)" />
  <rect x="48" y="52" width="160" height="16" rx="8" fill="#0B3C49" opacity="0.18" />
  <rect x="48" y="76" width="120" height="10" rx="5" fill="#0B3C49" opacity="0.18" />
  <rect x="48" y="96" width="152" height="10" rx="5" fill="#0B3C49" opacity="0.12" />
  <rect x="48" y="122" width="74" height="12" rx="6" fill="url(#accent)" />
  <rect x="128" y="122" width="78" height="12" rx="6" fill="#1A936F" opacity="0.9" />
  <rect x="48" y="144" width="96" height="12" rx="6" fill="#1A936F" opacity="0.7" />
  <rect x="150" y="144" width="56" height="12" rx="6" fill="url(#accent)" />
  <circle cx="194" cy="76" r="14" fill="url(#accent)" />
  <path d="M188 76l4 4 8-9" fill="none" stroke="#FFFFFF" stroke-width="4" stroke-linecap="round" stroke-linejoin="round" />
  <rect x="48" y="170" width="160" height="28" rx="14" fill="#E2E8F0" />
  <text x="60" y="190" font-family="'Trebuchet MS', 'DejaVu Sans', Arial, sans-serif" font-size="18" font-weight="700" fill="#0B3C49">ORCA</text>
  <text x="128" y="190" font-family="'Trebuchet MS', 'DejaVu Sans', Arial, sans-serif" font-size="14" font-weight="700" fill="#1D2F4F">PREP</text>
  <text x="170" y="190" font-family="'Trebuchet MS', 'DejaVu Sans', Arial, sans-serif" font-size="12" font-weight="700" fill="#1A936F">EHR</text>
</svg>
