<svg xmlns="http://www.w3.org/2000/svg" width="256" height="256" viewBox="0 0 256 256" role="img" aria-labelledby="title desc">
  <title id="title">ORCA Bridge Icon</title>
  <desc id="desc">Modernized server bridging to webORCA production with secure handoff.</desc>
  <defs>
    <linearGradient id="bg" x1="0" x2="1" y1="0" y2="1">
      <stop offset="0%" stop-color="#0f1f44" />
      <stop offset="100%" stop-color="#0b6fa4" />
    </linearGradient>
    <linearGradient id="beam" x1="0" x2="1" y1="0.5" y2="0.5">
      <stop offset="0%" stop-color="#53d3ff" stop-opacity="0.0" />
      <stop offset="50%" stop-color="#53d3ff" stop-opacity="0.85" />
      <stop offset="100%" stop-color="#53d3ff" stop-opacity="0.0" />
    </linearGradient>
    <filter id="shadow" x="-20%" y="-20%" width="140%" height="140%">
      <feDropShadow dx="0" dy="4" stdDeviation="6" flood-color="#000" flood-opacity="0.35" />
    </filter>
  </defs>
  <rect x="8" y="8" width="240" height="240" rx="32" fill="url(#bg)" />
  <g filter="url(#shadow)">
    <rect x="42" y="84" width="74" height="88" rx="14" fill="#102f5a" stroke="#7fd0ff" stroke-width="3" />
    <rect x="140" y="84" width="74" height="88" rx="14" fill="#103f6a" stroke="#b0f0ff" stroke-width="3" />
    <rect x="42" y="104" width="74" height="12" rx="6" fill="#1ea7e1" />
    <rect x="140" y="140" width="74" height="12" rx="6" fill="#7fd0ff" />
    <rect x="42" y="152" width="38" height="10" rx="5" fill="#4ae6b9" />
    <rect x="176" y="104" width="38" height="10" rx="5" fill="#4ae6b9" />
  </g>
  <rect x="60" y="120" width="136" height="16" rx="8" fill="url(#beam)" />
  <circle cx="128" cy="128" r="22" fill="#0c243f" stroke="#4ae6b9" stroke-width="4" />
  <path d="M118 132c3 6 17 6 20-2-6 1-9-5-6-10 1-2 3-3 5-4-9-3-19 8-19 16z" fill="#7fd0ff" />
  <text x="128" y="204" text-anchor="middle" font-family="'IBM Plex Sans', 'Segoe UI', sans-serif" font-size="20" font-weight="600" fill="#dff6ff">ORCA LINK</text>
</svg>
