<svg xmlns="http://www.w3.org/2000/svg" width="256" height="256" viewBox="0 0 256 256" role="img" aria-label="ORCA implementation issue inventory">
  <defs>
    <linearGradient id="bg" x1="0" y1="0" x2="1" y2="1">
      <stop offset="0" stop-color="#0A2F3A" />
      <stop offset="1" stop-color="#1B4F5C" />
    </linearGradient>
    <linearGradient id="accent" x1="0" y1="0" x2="1" y2="0">
      <stop offset="0" stop-color="#F2994A" />
      <stop offset="1" stop-color="#F5B97D" />
    </linearGradient>
    <filter id="shadow" x="-20%" y="-20%" width="140%" height="140%">
      <feDropShadow dx="0" dy="8" stdDeviation="10" flood-color="#061821" flood-opacity="0.35" />
    </filter>
  </defs>
  <rect x="0" y="0" width="256" height="256" rx="32" fill="url(#bg)" />
  <rect x="28" y="24" width="200" height="208" rx="20" fill="#F8FAFC" filter="url(#shadow)" />

  <rect x="48" y="52" width="132" height="12" rx="6" fill="#0B2F3A" opacity="0.18" />
  <rect x="48" y="72" width="98" height="10" rx="5" fill="#0B2F3A" opacity="0.16" />
  <rect x="48" y="92" width="142" height="10" rx="5" fill="#0B2F3A" opacity="0.12" />

  <rect x="48" y="118" width="14" height="14" rx="3" fill="url(#accent)" />
  <rect x="68" y="120" width="120" height="10" rx="5" fill="#1B4F5C" opacity="0.25" />
  <rect x="48" y="140" width="14" height="14" rx="3" fill="#1F6F78" opacity="0.9" />
  <rect x="68" y="142" width="92" height="10" rx="5" fill="#1B4F5C" opacity="0.25" />

  <circle cx="186" cy="70" r="20" fill="#FFE7C2" stroke="#0B2F3A" stroke-width="4" />
  <line x1="198" y1="82" x2="214" y2="98" stroke="#0B2F3A" stroke-width="5" stroke-linecap="round" />
  <rect x="182" y="60" width="8" height="14" rx="4" fill="#F2994A" />
  <circle cx="186" cy="78" r="3" fill="#F2994A" />

  <circle cx="186" cy="172" r="12" fill="#EB5757" />
  <path d="M182 172h8" stroke="#FFFFFF" stroke-width="3" stroke-linecap="round" />

  <rect x="48" y="184" width="160" height="28" rx="14" fill="#E2E8F0" />
  <text x="60" y="204" font-family="'Trebuchet MS', 'DejaVu Sans', Arial, sans-serif" font-size="16" font-weight="700" fill="#0B2F3A">ORCA</text>
  <text x="118" y="204" font-family="'Trebuchet MS', 'DejaVu Sans', Arial, sans-serif" font-size="12" font-weight="700" fill="#1B4F5C">ISSUE</text>
  <text x="166" y="204" font-family="'Trebuchet MS', 'DejaVu Sans', Arial, sans-serif" font-size="12" font-weight="700" fill="#F2994A">MAP</text>
</svg>
