<svg xmlns="http://www.w3.org/2000/svg" width="256" height="256" viewBox="0 0 256 256" role="img" aria-label="Server Code Review Plan">
  <defs>
    <linearGradient id="bg" x1="0" y1="0" x2="1" y2="1">
      <stop offset="0%" stop-color="#102A43"/>
      <stop offset="100%" stop-color="#1B3A57"/>
    </linearGradient>
    <linearGradient id="panel" x1="0" y1="0" x2="1" y2="1">
      <stop offset="0%" stop-color="#F7F3E9"/>
      <stop offset="100%" stop-color="#E6EEF5"/>
    </linearGradient>
    <filter id="shadow" x="-20%" y="-20%" width="140%" height="140%">
      <feDropShadow dx="0" dy="6" stdDeviation="6" flood-color="#000000" flood-opacity="0.25"/>
    </filter>
  </defs>

  <rect width="256" height="256" rx="28" fill="url(#bg)"/>
  <rect x="18" y="20" width="220" height="216" rx="20" fill="url(#panel)" filter="url(#shadow)"/>

  <rect x="36" y="52" width="92" height="28" rx="6" fill="#2C7DA0"/>
  <rect x="36" y="88" width="92" height="28" rx="6" fill="#2C7DA0"/>
  <rect x="36" y="124" width="92" height="28" rx="6" fill="#2C7DA0"/>
  <rect x="44" y="58" width="76" height="4" rx="2" fill="#D9E8F5"/>
  <rect x="44" y="94" width="76" height="4" rx="2" fill="#D9E8F5"/>
  <rect x="44" y="130" width="76" height="4" rx="2" fill="#D9E8F5"/>

  <circle cx="176" cy="96" r="30" fill="#F4B93D"/>
  <circle cx="176" cy="96" r="20" fill="#FFF8E1"/>
  <path d="M196 116 L214 134" stroke="#F4B93D" stroke-width="8" stroke-linecap="round"/>

  <path d="M158 146 L170 158 L196 132" fill="none" stroke="#46B29D" stroke-width="8" stroke-linecap="round" stroke-linejoin="round"/>

  <rect x="52" y="176" width="152" height="32" rx="10" fill="#102A43"/>
  <text x="128" y="197" text-anchor="middle" font-size="14" font-weight="700" font-family="'Trebuchet MS', 'Segoe UI', sans-serif" fill="#FFFFFF">CODE REVIEW</text>

  <rect x="164" y="36" width="60" height="24" rx="8" fill="#1F6F8B"/>
  <text x="194" y="53" text-anchor="middle" font-size="11" font-weight="700" font-family="'Trebuchet MS', 'Segoe UI', sans-serif" fill="#FFFFFF">PLAN</text>
</svg>
