<svg xmlns="http://www.w3.org/2000/svg" width="256" height="256" viewBox="0 0 256 256" role="img" aria-label="Server Modernized Gantt">
  <defs>
    <linearGradient id="bg" x1="0" y1="0" x2="1" y2="1">
      <stop offset="0%" stop-color="#0B3C49"/>
      <stop offset="100%" stop-color="#1BAA9B"/>
    </linearGradient>
    <linearGradient id="accent" x1="0" y1="0" x2="1" y2="1">
      <stop offset="0%" stop-color="#F4B942"/>
      <stop offset="100%" stop-color="#F06C2E"/>
    </linearGradient>
    <filter id="shadow" x="-20%" y="-20%" width="140%" height="140%">
      <feDropShadow dx="0" dy="4" stdDeviation="6" flood-color="#062A33" flood-opacity="0.35"/>
    </filter>
  </defs>

  <rect x="0" y="0" width="256" height="256" rx="28" fill="url(#bg)"/>

  <g opacity="0.18">
    <path d="M24 64H232" stroke="#D7FFF8" stroke-width="2"/>
    <path d="M24 96H232" stroke="#D7FFF8" stroke-width="2"/>
    <path d="M24 128H232" stroke="#D7FFF8" stroke-width="2"/>
    <path d="M24 160H232" stroke="#D7FFF8" stroke-width="2"/>
    <path d="M24 192H232" stroke="#D7FFF8" stroke-width="2"/>
  </g>

  <g filter="url(#shadow)">
    <rect x="28" y="36" width="200" height="144" rx="18" fill="#0F2F3A"/>
    <rect x="44" y="58" width="84" height="16" rx="8" fill="url(#accent)"/>
    <rect x="44" y="86" width="132" height="16" rx="8" fill="#7CE6D5"/>
    <rect x="44" y="114" width="104" height="16" rx="8" fill="#3FD0BF"/>
    <rect x="44" y="142" width="154" height="16" rx="8" fill="#1FB7A6"/>
  </g>

  <g filter="url(#shadow)">
    <circle cx="196" cy="206" r="30" fill="url(#accent)"/>
    <path d="M184 206l8 8 16-18" fill="none" stroke="#0F2F3A" stroke-width="6" stroke-linecap="round" stroke-linejoin="round"/>
  </g>

  <text x="28" y="214" font-family="'Trebuchet MS', 'Segoe UI', sans-serif" font-size="22" font-weight="700" fill="#E8FFFB">GANTT 100%</text>
</svg>
