<svg xmlns="http://www.w3.org/2000/svg" viewBox="0 0 256 256" role="img" aria-label="Server modernized hardening plan icon">
  <defs>
    <linearGradient id="bg" x1="0%" y1="0%" x2="100%" y2="100%">
      <stop offset="0%" stop-color="#0b1a2e" />
      <stop offset="100%" stop-color="#0e7ca6" />
    </linearGradient>
    <linearGradient id="shield" x1="0%" y1="0%" x2="0%" y2="100%">
      <stop offset="0%" stop-color="#ffffff" stop-opacity="0.95" />
      <stop offset="100%" stop-color="#dff3ff" stop-opacity="0.9" />
    </linearGradient>
  </defs>
  <rect x="12" y="12" width="232" height="232" rx="40" fill="url(#bg)" stroke="#0af" stroke-width="2" opacity="0.95" />
  <path d="M128 52 L188 76 L188 126 C188 162 164 195 128 208 C92 195 68 162 68 126 L68 76 Z" fill="url(#shield)" stroke="#0b4f7b" stroke-width="4" />
  <rect x="104" y="118" width="48" height="50" rx="10" fill="#0b4f7b" />
  <rect x="114" y="126" width="28" height="26" rx="6" fill="#ffffff" />
  <circle cx="128" cy="148" r="6" fill="#0b4f7b" />
  <rect x="124" y="148" width="8" height="16" rx="3" fill="#0b4f7b" />
  <circle cx="90" cy="92" r="14" fill="#ffc857" stroke="#0b1a2e" stroke-width="3" />
  <path d="M90 82 L90 102 M80 92 L100 92" stroke="#0b1a2e" stroke-width="3" stroke-linecap="round" />
  <text x="128" y="236" text-anchor="middle" font-family="'Segoe UI', sans-serif" font-size="20" fill="#dff3ff" font-weight="700">60117</text>
</svg>
