<svg xmlns="http://www.w3.org/2000/svg" width="256" height="256" viewBox="0 0 256 256">
  <defs>
    <linearGradient id="bg" x1="0%" y1="0%" x2="100%" y2="100%">
      <stop offset="0%" stop-color="#0B1F3A"/>
      <stop offset="100%" stop-color="#0F2F5C"/>
    </linearGradient>
    <linearGradient id="link" x1="0%" y1="0%" x2="100%" y2="0%">
      <stop offset="0%" stop-color="#00E6D5"/>
      <stop offset="100%" stop-color="#00BFA6"/>
    </linearGradient>
    <filter id="shadow" x="-20%" y="-20%" width="140%" height="140%">
      <feDropShadow dx="0" dy="6" stdDeviation="8" flood-color="#021026" flood-opacity="0.6"/>
    </filter>
  </defs>
  <rect x="0" y="0" width="256" height="256" rx="28" fill="url(#bg)"/>
  <circle cx="128" cy="88" r="70" fill="#0C2747" opacity="0.35"/>
  <g filter="url(#shadow)">
    <rect x="66" y="110" width="124" height="70" rx="18" fill="#0C2747" stroke="#123A70" stroke-width="2"/>
    <path d="M92 140c0-14 10-26 24-26h24" fill="none" stroke="url(#link)" stroke-width="10" stroke-linecap="round"/>
    <path d="M140 114h24c14 0 24 12 24 26 0 14-10 26-24 26h-24" fill="none" stroke="url(#link)" stroke-width="10" stroke-linecap="round"/>
    <path d="M118 150c4 7 11 11 18 11 7 0 14-4 18-11" fill="none" stroke="#FFD166" stroke-width="4" stroke-linecap="round" stroke-dasharray="4 6"/>
    <path d="M82 166c10 8 24 14 46 14 22 0 36-6 46-14" fill="none" stroke="#00D7C0" stroke-width="3" stroke-linecap="round" opacity="0.8"/>
  </g>
  <circle cx="196" cy="64" r="18" fill="#FFD166" />
  <text x="196" y="69" text-anchor="middle" font-family="Segoe UI, 'Noto Sans JP', sans-serif" font-size="14" font-weight="700" fill="#0B1F3A">OR</text>
</svg>
