<svg xmlns="http://www.w3.org/2000/svg" width="256" height="256" viewBox="0 0 256 256">
  <defs>
    <linearGradient id="bg" x1="0" y1="0" x2="1" y2="1">
      <stop offset="0%" stop-color="#0B1F2A"/>
      <stop offset="100%" stop-color="#1F5E7A"/>
    </linearGradient>
    <linearGradient id="accent" x1="0" y1="0" x2="0" y2="1">
      <stop offset="0%" stop-color="#21D4C0"/>
      <stop offset="100%" stop-color="#0FA3A0"/>
    </linearGradient>
    <filter id="shadow" x="-20%" y="-20%" width="140%" height="140%">
      <feDropShadow dx="0" dy="6" stdDeviation="8" flood-color="#000000" flood-opacity="0.35"/>
    </filter>
  </defs>
  <rect x="12" y="12" width="232" height="232" rx="36" fill="url(#bg)"/>
  <circle cx="96" cy="112" r="46" fill="url(#accent)" filter="url(#shadow)"/>
  <path d="M78 102 C92 88 118 88 132 102 C114 104 102 118 100 134 C92 120 84 112 78 102 Z" fill="#0B1F2A" opacity="0.9"/>
  <circle cx="112" cy="104" r="6" fill="#F7F7F7"/>
  <rect x="140" y="76" width="88" height="28" rx="14" fill="#FFD166"/>
  <text x="184" y="96" text-anchor="middle" font-family="'Arial Black', Arial, sans-serif" font-size="14" fill="#0B1F2A">WEB</text>
  <text x="148" y="160" font-family="'Arial Black', Arial, sans-serif" font-size="28" fill="#F7F7F7">ORCA+</text>
  <text x="148" y="188" font-family="'Arial Black', Arial, sans-serif" font-size="14" fill="#B7E3F6">ADDITIONAL API</text>
  <rect x="28" y="196" width="200" height="24" rx="12" fill="#0F2E3C" opacity="0.7"/>
  <text x="128" y="212" text-anchor="middle" font-family="Arial, sans-serif" font-size="12" fill="#21D4C0">WEB CLIENT INTEGRATION</text>
</svg>
