<svg xmlns="http://www.w3.org/2000/svg" viewBox="0 0 256 256" role="img" aria-labelledby="title desc">
  <title id="title">WebClient ORCA Flow</title>
  <desc id="desc">Reception to billing and prescription flow icon with chart arrow and clipboard</desc>
  <defs>
    <linearGradient id="bg" x1="0%" y1="0%" x2="100%" y2="100%">
      <stop offset="0%" stop-color="#0b72d2"/>
      <stop offset="100%" stop-color="#16c5a8"/>
    </linearGradient>
    <filter id="shadow" x="-10%" y="-10%" width="120%" height="120%">
      <feDropShadow dx="0" dy="8" stdDeviation="10" flood-color="#052f4f" flood-opacity="0.25"/>
    </filter>
  </defs>
  <rect x="12" y="12" width="232" height="232" rx="28" fill="url(#bg)" />
  <g filter="url(#shadow)" transform="translate(18 22)">
    <rect x="10" y="26" width="120" height="170" rx="16" fill="#ffffff" opacity="0.95"/>
    <rect x="22" y="46" width="96" height="18" rx="6" fill="#0b72d2" opacity="0.9"/>
    <rect x="22" y="80" width="68" height="12" rx="6" fill="#0b72d2" opacity="0.7"/>
    <rect x="22" y="106" width="82" height="12" rx="6" fill="#0b72d2" opacity="0.7"/>
    <rect x="22" y="132" width="60" height="12" rx="6" fill="#0b72d2" opacity="0.7"/>
    <rect x="22" y="158" width="92" height="12" rx="6" fill="#0b72d2" opacity="0.7"/>
    <rect x="60" y="8" width="60" height="16" rx="8" fill="#0b72d2" />
    <text x="90" y="20" text-anchor="middle" font-family="Inter, 'Noto Sans JP', sans-serif" font-size="11" fill="#e6f6ff" font-weight="700">受付/帳票</text>
  </g>
  <g filter="url(#shadow)" transform="translate(116 44)">
    <circle cx="92" cy="44" r="42" fill="#0f2d40" opacity="0.8"/>
    <path d="M70 40c0-18 14-32 32-32s32 14 32 32-14 32-32 32" fill="#1ad5b2" opacity="0.9"/>
    <path d="M88 26h24l-6 8h-12l-6 8h24" fill="none" stroke="#f6f9fc" stroke-width="4" stroke-linecap="round" stroke-linejoin="round"/>
    <path d="M92 62h24" stroke="#f6f9fc" stroke-width="4" stroke-linecap="round"/>
    <text x="92" y="92" text-anchor="middle" font-family="Inter, 'Noto Sans JP', sans-serif" font-size="12" fill="#fefefe" font-weight="700">ORCA</text>
  </g>
  <path d="M116 90c24-18 44-24 76-18" fill="none" stroke="#f8b53c" stroke-width="8" stroke-linecap="round" stroke-linejoin="round" marker-end="url(#arrow)"/>
  <path d="M96 168c22 6 40 4 64-8" fill="none" stroke="#f8b53c" stroke-width="8" stroke-linecap="round" stroke-linejoin="round" marker-end="url(#arrow)"/>
  <defs>
    <marker id="arrow" markerWidth="10" markerHeight="10" refX="6" refY="5" orient="auto">
      <path d="M0 0l10 5-10 5z" fill="#f8b53c"/>
    </marker>
  </defs>
  <circle cx="80" cy="198" r="18" fill="#0b72d2" />
  <text x="80" y="203" text-anchor="middle" font-family="Inter, 'Noto Sans JP', sans-serif" font-size="12" fill="#e6f6ff" font-weight="700">🚀</text>
</svg>
