<svg xmlns="http://www.w3.org/2000/svg" viewBox="0 0 256 256" role="img" aria-label="Web client modernization plan icon">
  <defs>
    <linearGradient id="bg" x1="0" y1="0" x2="1" y2="1">
      <stop offset="0%" stop-color="#0f172a"/>
      <stop offset="100%" stop-color="#0ea5e9"/>
    </linearGradient>
    <linearGradient id="card" x1="0" y1="0" x2="1" y2="0">
      <stop offset="0%" stop-color="#e0f2fe"/>
      <stop offset="100%" stop-color="#c7d2fe"/>
    </linearGradient>
    <filter id="shadow" x="-10%" y="-10%" width="120%" height="120%">
      <feDropShadow dx="0" dy="8" stdDeviation="10" flood-color="#000000" flood-opacity="0.28"/>
    </filter>
  </defs>
  <rect x="12" y="12" width="232" height="232" rx="28" fill="url(#bg)"/>
  <g stroke="#1f2937" stroke-opacity="0.18" stroke-width="2">
    <path d="M32 80h192M32 128h192M32 176h192"/>
    <path d="M80 32v192M128 32v192M176 32v192"/>
  </g>
  <g filter="url(#shadow)">
    <rect x="52" y="56" width="152" height="88" rx="14" fill="url(#card)" stroke="#0f172a" stroke-width="2"/>
    <rect x="68" y="74" width="72" height="12" rx="6" fill="#0ea5e9" opacity="0.72"/>
    <rect x="68" y="96" width="120" height="10" rx="5" fill="#1f2937" opacity="0.18"/>
    <rect x="68" y="114" width="120" height="10" rx="5" fill="#1f2937" opacity="0.18"/>
  </g>
  <g filter="url(#shadow)">
    <rect x="90" y="160" width="76" height="44" rx="12" fill="#111827" stroke="#0ea5e9" stroke-width="2"/>
    <text x="128" y="188" text-anchor="middle" font-size="20" font-family="Inter, system-ui, -apple-system, sans-serif" fill="#e0f2fe" font-weight="700">RUN</text>
  </g>
  <g stroke="#e0f2fe" stroke-width="3" stroke-linecap="round">
    <path d="M190 100c22 6 34 20 34 34 0 10-6 18-16 18-9 0-16-7-16-16 0-5 2-9 6-12"/>
    <path d="M66 186c-18 6-26 16-26 26 0 7 5 12 12 12 8 0 14-6 14-14 0-4-1-7-3-10"/>
  </g>
  <circle cx="202" cy="96" r="10" fill="#22c55e" stroke="#e0f2fe" stroke-width="3"/>
  <circle cx="210" cy="152" r="10" fill="#f59e0b" stroke="#e0f2fe" stroke-width="3"/>
  <circle cx="56" cy="196" r="10" fill="#e11d48" stroke="#e0f2fe" stroke-width="3"/>
</svg>
