<svg width="256" height="256" viewBox="0 0 256 256" xmlns="http://www.w3.org/2000/svg" role="img" aria-label="Web client charts production outpatient plan">
  <defs>
    <linearGradient id="bg" x1="0%" y1="0%" x2="100%" y2="100%">
      <stop offset="0%" stop-color="#0b1630" />
      <stop offset="100%" stop-color="#0a4b6a" />
    </linearGradient>
    <linearGradient id="card" x1="0%" y1="0%" x2="0%" y2="100%">
      <stop offset="0%" stop-color="#102a4b" />
      <stop offset="100%" stop-color="#0f2342" />
    </linearGradient>
    <filter id="shadow" x="-20%" y="-20%" width="140%" height="140%">
      <feDropShadow dx="0" dy="8" stdDeviation="10" flood-color="#000000" flood-opacity="0.35" />
    </filter>
    <linearGradient id="pulse" x1="0%" y1="0%" x2="100%" y2="0%">
      <stop offset="0%" stop-color="#59c3ff" />
      <stop offset="100%" stop-color="#7fe2c9" />
    </linearGradient>
  </defs>

  <rect width="256" height="256" rx="24" fill="url(#bg)" />

  <rect x="24" y="32" width="208" height="192" rx="28" fill="url(#card)" stroke="#59c3ff" stroke-width="2" opacity="0.95" filter="url(#shadow)" />

  <rect x="50" y="62" width="108" height="128" rx="18" fill="#0d1c33" stroke="#d1fbff" stroke-width="2" opacity="0.95" />
  <rect x="84" y="50" width="40" height="22" rx="10" fill="#59c3ff" opacity="0.9" />
  <rect x="90" y="56" width="28" height="10" rx="5" fill="#0b1630" opacity="0.9" />

  <path d="M62 130 H86 L94 114 L106 154 L118 126 L126 130 H146" fill="none" stroke="url(#pulse)" stroke-width="6" stroke-linecap="round" stroke-linejoin="round" />
  <circle cx="62" cy="130" r="5" fill="#7fe2c9" />
  <circle cx="146" cy="130" r="5" fill="#59c3ff" />

  <g opacity="0.95">
    <rect x="170" y="78" width="46" height="22" rx="8" fill="#0b1630" stroke="#88d4ff" stroke-width="2" />
    <rect x="170" y="106" width="46" height="22" rx="8" fill="#0b1630" stroke="#88d4ff" stroke-width="2" />
    <rect x="170" y="134" width="46" height="22" rx="8" fill="#0b1630" stroke="#88d4ff" stroke-width="2" />
    <circle cx="210" cy="89" r="4" fill="#7fe2c9" />
    <circle cx="210" cy="117" r="4" fill="#7fe2c9" />
    <circle cx="210" cy="145" r="4" fill="#7fe2c9" />
  </g>

  <path d="M170 186 L184 200 L210 170" fill="none" stroke="#f6c358" stroke-width="8" stroke-linecap="round" stroke-linejoin="round" />

  <text x="56" y="206" font-size="34" font-weight="800" font-family="Inter, 'Noto Sans JP', Arial, sans-serif" fill="#fefefe" letter-spacing="1">カルテ</text>
  <text x="172" y="64" font-size="16" font-weight="700" font-family="Inter, Arial, sans-serif" fill="#d1fbff" opacity="0.95">OUTPATIENT</text>
</svg>
