<svg xmlns="http://www.w3.org/2000/svg" width="256" height="256" viewBox="0 0 256 256" role="img" aria-label="Charts compact layout plan icon">
  <defs>
    <linearGradient id="bg" x1="0" y1="0" x2="1" y2="1">
      <stop offset="0" stop-color="#0F2233"/>
      <stop offset="1" stop-color="#0B1320"/>
    </linearGradient>
    <linearGradient id="accent" x1="0" y1="0" x2="1" y2="0">
      <stop offset="0" stop-color="#32D2A6"/>
      <stop offset="1" stop-color="#64B5F6"/>
    </linearGradient>
    <filter id="shadow" x="-20%" y="-20%" width="140%" height="140%">
      <feDropShadow dx="0" dy="6" stdDeviation="6" flood-color="#000000" flood-opacity="0.35"/>
    </filter>
  </defs>
  <rect x="12" y="12" width="232" height="232" rx="32" fill="url(#bg)"/>
  <rect x="24" y="24" width="208" height="60" rx="16" fill="#132A3E" stroke="#1C3A54" stroke-width="2"/>
  <rect x="24" y="94" width="208" height="138" rx="18" fill="#0F1E2C" stroke="#1B3246" stroke-width="2"/>

  <rect x="38" y="112" width="56" height="104" rx="10" fill="#152B3D"/>
  <rect x="100" y="112" width="56" height="104" rx="10" fill="#172F45"/>
  <rect x="162" y="112" width="56" height="104" rx="10" fill="#193650"/>
  <rect x="210" y="112" width="14" height="104" rx="7" fill="url(#accent)"/>

  <rect x="36" y="36" width="184" height="10" rx="5" fill="url(#accent)"/>
  <rect x="36" y="52" width="120" height="10" rx="5" fill="#6ADDC1" opacity="0.85"/>
  <rect x="162" y="52" width="58" height="10" rx="5" fill="#FFD166"/>

  <rect x="32" y="192" width="192" height="2" fill="#244157" opacity="0.6"/>

  <text x="42" y="74" font-size="20" font-family="'Avenir Next','Segoe UI',sans-serif" fill="#E5F4FF" letter-spacing="1">CMPCT</text>
  <text x="200" y="74" font-size="18" font-family="'Segoe UI Emoji','Apple Color Emoji',sans-serif" fill="#E5F4FF">📊</text>

  <circle cx="210" cy="202" r="14" fill="#0F2233" stroke="url(#accent)" stroke-width="3" filter="url(#shadow)"/>
  <circle cx="210" cy="202" r="4" fill="#64B5F6"/>
</svg>
