<svg xmlns="http://www.w3.org/2000/svg" viewBox="0 0 256 256" width="256" height="256" role="img" aria-label="Web client EMR UI refresh icon">
  <defs>
    <linearGradient id="bg" x1="0" y1="0" x2="1" y2="1">
      <stop offset="0%" stop-color="#0b1f36"/>
      <stop offset="100%" stop-color="#0f6f86"/>
    </linearGradient>
    <linearGradient id="accent" x1="0" y1="0" x2="1" y2="0">
      <stop offset="0%" stop-color="#34d399"/>
      <stop offset="100%" stop-color="#60a5fa"/>
    </linearGradient>
    <filter id="shadow" x="-20%" y="-20%" width="140%" height="140%">
      <feDropShadow dx="0" dy="6" stdDeviation="8" flood-color="#000" flood-opacity="0.35"/>
    </filter>
  </defs>
  <rect x="0" y="0" width="256" height="256" rx="28" fill="url(#bg)"/>
  <rect x="-18" y="12" width="180" height="90" rx="18" fill="#ffffff12" transform="rotate(-8 60 60)"/>
  <rect x="160" y="172" width="120" height="70" rx="20" fill="#ffffff10" transform="rotate(12 200 200)"/>

  <g filter="url(#shadow)">
    <rect x="26" y="62" width="86" height="124" rx="14" fill="#fef3c7"/>
    <rect x="82" y="40" width="112" height="148" rx="16" fill="#e0f2fe"/>
    <rect x="160" y="64" width="70" height="120" rx="14" fill="#ecfccb"/>
  </g>

  <rect x="34" y="76" width="68" height="10" rx="5" fill="#f59e0b"/>
  <rect x="34" y="94" width="54" height="8" rx="4" fill="#fbbf24"/>
  <rect x="34" y="108" width="62" height="8" rx="4" fill="#fbbf24"/>

  <path d="M104 134 C120 112 142 108 152 92" fill="none" stroke="#38bdf8" stroke-width="6" stroke-linecap="round"/>
  <circle cx="104" cy="134" r="6" fill="#0ea5e9"/>
  <circle cx="152" cy="92" r="6" fill="#0ea5e9"/>

  <circle cx="198" cy="98" r="18" fill="#65a30d"/>
  <circle cx="192" cy="94" r="4" fill="#f7fee7"/>
  <rect x="192" y="101" width="12" height="4" rx="2" fill="#f7fee7"/>

  <rect x="44" y="178" width="168" height="34" rx="12" fill="url(#accent)" opacity="0.9" filter="url(#shadow)"/>
  <text x="128" y="201" text-anchor="middle" font-size="16" font-family="'Poppins','Segoe UI',sans-serif" font-weight="700" fill="#0b1f36">EMR UI REFRESH</text>
  <text x="68" y="154" text-anchor="middle" font-size="16" font-family="'Poppins','Segoe UI',sans-serif" font-weight="700" fill="#92400e">R</text>
  <text x="136" y="154" text-anchor="middle" font-size="16" font-family="'Poppins','Segoe UI',sans-serif" font-weight="700" fill="#0c4a6e">C</text>
  <text x="196" y="154" text-anchor="middle" font-size="16" font-family="'Poppins','Segoe UI',sans-serif" font-weight="700" fill="#365314">P</text>
</svg>
