<svg width="256" height="256" viewBox="0 0 256 256" xmlns="http://www.w3.org/2000/svg" role="img" aria-label="Web client outpatient modernization plan">
  <defs>
    <linearGradient id="bgGrad" x1="0%" y1="0%" x2="100%" y2="100%">
      <stop offset="0%" stop-color="#0d1d3b" />
      <stop offset="100%" stop-color="#0b4c6c" />
    </linearGradient>
    <linearGradient id="cardGrad" x1="0%" y1="0%" x2="0%" y2="100%">
      <stop offset="0%" stop-color="#0f2945" />
      <stop offset="100%" stop-color="#142f58" />
    </linearGradient>
    <linearGradient id="lineGrad" x1="0%" y1="0%" x2="100%" y2="0%">
      <stop offset="0%" stop-color="#3fc4d5" />
      <stop offset="100%" stop-color="#7fe2c9" />
    </linearGradient>
  </defs>
  <rect width="256" height="256" rx="24" fill="url(#bgGrad)" />
  <rect x="28" y="40" width="200" height="176" rx="32" fill="url(#cardGrad)" stroke="#59c3ff" stroke-width="2" opacity="0.9" />
  <rect x="52" y="70" width="152" height="10" rx="5" fill="#6ec3ff" />
  <rect x="52" y="92" width="152" height="8" rx="4" fill="#88d4ff" />
  <rect x="52" y="114" width="152" height="8" rx="4" fill="#a1e0ff" />
  <rect x="52" y="148" width="112" height="10" rx="5" fill="#ccf4ff" opacity="0.9" />
  <rect x="52" y="170" width="92" height="12" rx="6" fill="#f5fcff" opacity="0.8" />
  <path d="M56 200 L120 200" stroke="#7fe2c9" stroke-width="6" stroke-linecap="round" opacity="0.6" />
  <circle cx="128" cy="196" r="28" fill="none" stroke="#85f1d2" stroke-width="4" opacity="0.7" />
  <path d="M150 84 C210 110, 220 180, 160 210" fill="none" stroke="url(#lineGrad)" stroke-width="8" stroke-linecap="round" />
  <circle cx="156" cy="208" r="12" fill="#59c3ff" stroke="#d1fbff" stroke-width="2" />
  <circle cx="60" cy="188" r="18" fill="#f6c358" stroke="#fff7d2" stroke-width="2" />
  <path d="M60 180 L60 198" stroke="#3b1e00" stroke-width="3" stroke-linecap="round" />
  <path d="M54 188 L66 188" stroke="#3b1e00" stroke-width="3" stroke-linecap="round" />
  <text x="104" y="190" font-size="56" font-weight="700" font-family="Inter,Arial,sans-serif" fill="#fefefe" letter-spacing="2">UX</text>
</svg>
