<svg xmlns="http://www.w3.org/2000/svg" width="256" height="256" viewBox="0 0 256 256" role="img" aria-label="Web client productionization gantt">
  <defs>
    <linearGradient id="bg" x1="0" y1="0" x2="1" y2="1">
      <stop offset="0" stop-color="#0F4C5C" />
      <stop offset="1" stop-color="#0B6E4F" />
    </linearGradient>
    <linearGradient id="accent" x1="0" y1="0" x2="1" y2="0">
      <stop offset="0" stop-color="#F6AE2D" />
      <stop offset="1" stop-color="#F26419" />
    </linearGradient>
    <filter id="shadow" x="-20%" y="-20%" width="140%" height="140%">
      <feDropShadow dx="0" dy="6" stdDeviation="8" flood-color="#082F35" flood-opacity="0.35" />
    </filter>
  </defs>
  <rect x="0" y="0" width="256" height="256" rx="32" fill="url(#bg)" />
  <rect x="34" y="30" width="188" height="196" rx="20" fill="#F8FAFC" filter="url(#shadow)" />
  <rect x="52" y="52" width="152" height="20" rx="10" fill="#0F4C5C" opacity="0.14" />
  <rect x="52" y="84" width="120" height="12" rx="6" fill="#0F4C5C" opacity="0.18" />
  <rect x="52" y="108" width="152" height="12" rx="6" fill="#0F4C5C" opacity="0.12" />
  <rect x="52" y="136" width="64" height="14" rx="7" fill="url(#accent)" />
  <rect x="122" y="136" width="82" height="14" rx="7" fill="#0B6E4F" opacity="0.85" />
  <rect x="52" y="160" width="92" height="14" rx="7" fill="#0B6E4F" opacity="0.7" />
  <rect x="148" y="160" width="56" height="14" rx="7" fill="url(#accent)" />
  <circle cx="196" cy="78" r="16" fill="url(#accent)" />
  <path d="M190 78l4 4 8-9" fill="none" stroke="#FFFFFF" stroke-width="4" stroke-linecap="round" stroke-linejoin="round" />
  <text x="62" y="210" font-family="'Trebuchet MS', 'DejaVu Sans', Arial, sans-serif" font-size="20" font-weight="700" fill="#0F4C5C">GANTT</text>
  <text x="152" y="210" font-family="'Trebuchet MS', 'DejaVu Sans', Arial, sans-serif" font-size="18" font-weight="700" fill="#0B6E4F">PROD</text>
</svg>
