<svg xmlns="http://www.w3.org/2000/svg" viewBox="0 0 256 256" width="256" height="256" role="img" aria-label="Web client navigation hardening icon">
  <defs>
    <linearGradient id="bg" x1="0" y1="0" x2="1" y2="1">
      <stop offset="0%" stop-color="#0c1f3a"/>
      <stop offset="100%" stop-color="#0f4d92"/>
    </linearGradient>
    <linearGradient id="route" x1="0" y1="0" x2="1" y2="1">
      <stop offset="0%" stop-color="#7ae582"/>
      <stop offset="100%" stop-color="#58c4dd"/>
    </linearGradient>
    <linearGradient id="bar" x1="0" y1="0" x2="1" y2="0">
      <stop offset="0%" stop-color="#16355d"/>
      <stop offset="100%" stop-color="#1f6feb"/>
    </linearGradient>
    <filter id="shadow" x="-20%" y="-20%" width="140%" height="140%">
      <feDropShadow dx="0" dy="6" stdDeviation="8" flood-color="#000" flood-opacity="0.35"/>
    </filter>
  </defs>
  <rect x="0" y="0" width="256" height="256" rx="28" fill="url(#bg)"/>
  <rect x="-20" y="-10" width="200" height="120" rx="20" fill="#ffffff10" transform="rotate(-8 60 60)"/>
  <rect x="50" y="192" width="156" height="34" rx="10" fill="url(#bar)" opacity="0.95" filter="url(#shadow)"/>
  <text x="128" y="215" text-anchor="middle" font-size="18" font-family="'Montserrat', 'Segoe UI', sans-serif" fill="#e8f0ff">VITE_BASE_PATH</text>
  <path d="M70 168 C90 150 112 142 128 132 C152 116 182 92 190 70" fill="none" stroke="url(#route)" stroke-width="10" stroke-linecap="round" stroke-linejoin="round" filter="url(#shadow)"/>
  <circle cx="70" cy="168" r="10" fill="#7ae582" stroke="#0b2a4a" stroke-width="3"/>
  <circle cx="128" cy="132" r="11" fill="#58c4dd" stroke="#0b2a4a" stroke-width="3"/>
  <circle cx="190" cy="70" r="12" fill="#ffb703" stroke="#0b2a4a" stroke-width="3"/>
  <path d="M190 70 q28 6 28 34" fill="none" stroke="#ffb703" stroke-width="5" stroke-linecap="round" opacity="0.85"/>
  <path d="M190 70 q26 -18 26 -42" fill="none" stroke="#ffb703" stroke-width="5" stroke-linecap="round" opacity="0.55"/>
  <path d="M128 132 l24 -34" fill="none" stroke="#e8f0ff" stroke-width="4" stroke-dasharray="6 6" opacity="0.8"/>
  <text x="88" y="88" text-anchor="middle" font-size="40" font-family="'Nunito Sans','Segoe UI',sans-serif" font-weight="700" fill="#e8f0ff">NAV</text>
  <text x="202" y="54" text-anchor="middle" font-size="12" font-family="'Nunito Sans','Segoe UI',sans-serif" fill="#0b2a4a" font-weight="700">SYNC</text>
</svg>
